HIERARCHY
ROOT Hips
{
	OFFSET -0.001795 -0.223333 0.028219
	CHANNELS 6 Xposition Yposition Zposition Zrotation Yrotation Xrotation 
	JOINT LeftUpLeg
	{
		OFFSET 0.069520 -0.091406 -0.006815
		CHANNELS 3 Zrotation Yrotation Xrotation
		JOINT LeftLeg
		{
			OFFSET 0.034277 -0.375199 -0.004496
			CHANNELS 3 Zrotation Yrotation Xrotation
			JOINT LeftFoot
			{
				OFFSET -0.013596 -0.397961 -0.043693
				CHANNELS 3 Zrotation Yrotation Xrotation
				JOINT LeftToe
				{
					OFFSET 0.026358 -0.055791 0.119288
					CHANNELS 3 Zrotation Yrotation Xrotation
					End Site
					{
						OFFSET 0.000000 0.000000 0.000000
					}
				}
			}
		}
	}
	JOINT RightUpLeg
	{
		OFFSET -0.067670 -0.090522 -0.004320
		CHANNELS 3 Zrotation Yrotation Xrotation
		JOINT RightLeg
		{
			OFFSET -0.038290 -0.382569 -0.008850
			CHANNELS 3 Zrotation Yrotation Xrotation
			JOINT RightFoot
			{
				OFFSET 0.015774 -0.398415 -0.042312
				CHANNELS 3 Zrotation Yrotation Xrotation
				JOINT RightToe
				{
					OFFSET -0.025372 -0.048144 0.123348
					CHANNELS 3 Zrotation Yrotation Xrotation
					End Site
					{
						OFFSET 0.000000 0.000000 0.000000
					}
				}
			}
		}
	}
	JOINT Spine
	{
		OFFSET -0.002533 0.108963 -0.026696
		CHANNELS 3 Zrotation Yrotation Xrotation
		JOINT Spine1
		{
			OFFSET 0.005487 0.135180 0.001092
			CHANNELS 3 Zrotation Yrotation Xrotation
			JOINT Spine2
			{
				OFFSET 0.001457 0.052922 0.025425
				CHANNELS 3 Zrotation Yrotation Xrotation
				JOINT Neck
				{
					OFFSET -0.002778 0.213870 -0.042857
					CHANNELS 3 Zrotation Yrotation Xrotation
					JOINT Head
					{
						OFFSET 0.005152 0.064970 0.051349
						CHANNELS 3 Zrotation Yrotation Xrotation
						End Site
						{
							OFFSET 0.000000 0.000000 0.000000
						}
					}
				}
				JOINT LeftShoulder
				{
					OFFSET 0.078845 0.121749 -0.034090
					CHANNELS 3 Zrotation Yrotation Xrotation
					JOINT LeftArm
					{
						OFFSET 0.090977 0.030469 -0.008868
						CHANNELS 3 Zrotation Yrotation Xrotation
						JOINT LeftForeArm
						{
							OFFSET 0.259612 -0.012772 -0.027456
							CHANNELS 3 Zrotation Yrotation Xrotation
							JOINT LeftHand
							{
								OFFSET 0.249234 0.008986 -0.001171
								CHANNELS 3 Zrotation Yrotation Xrotation
								End Site
								{
									OFFSET 0.000000 0.000000 0.000000
								}
							}
						}
					}
				}
				JOINT RightShoulder
				{
					OFFSET -0.081759 0.118833 -0.038615
					CHANNELS 3 Zrotation Yrotation Xrotation
					JOINT RightArm
					{
						OFFSET -0.096012 0.032551 -0.009143
						CHANNELS 3 Zrotation Yrotation Xrotation
						JOINT RightForeArm
						{
							OFFSET -0.253742 -0.013329 -0.021401
							CHANNELS 3 Zrotation Yrotation Xrotation
							JOINT RightHand
							{
								OFFSET -0.255298 0.007772 -0.005559
								CHANNELS 3 Zrotation Yrotation Xrotation
								End Site
								{
									OFFSET 0.000000 0.000000 0.000000
								}
							}
						}
					}
				}
			}
		}
	}
}
MOTION
Frames: 18
Frame Time: 0.050000
0.003806 0.875524 0.139803 -1.416057 -3.519656 -1.385154 3.499815 -1.363350 -25.224603 -3.054276 0.766158 44.742374 8.928896 18.483687 12.812377 0.000000 0.000000 0.000000 0.212221 3.237618 -28.805888 1.926731 2.141894 52.194361 -5.362107 -12.292262 -4.677469 0.000000 0.000000 0.000000 4.910284 -1.945676 25.068289 -3.704138 1.701822 -3.982777 -6.168050 7.310132 -2.117812 10.825627 -4.069422 -18.274166 0.000000 0.000000 0.000000 -24.896215 -15.908584 4.189248 -43.686712 -2.586123 -2.912956 -9.567976 -20.403052 2.215536 0.000000 0.000000 0.000000 27.629416 6.716580 4.160110 47.975110 2.543565 -3.932455 7.928676 24.255533 2.555575 0.000000 0.000000 0.000000 
0.004423 0.909189 0.135192 -1.315541 -2.949603 -0.607988 3.024825 -1.240496 -20.305940 -2.153765 0.106837 35.204025 5.958017 13.906020 11.872429 0.000000 0.000000 0.000000 0.379504 2.566570 -23.381317 0.436219 2.171040 41.963343 -4.251030 -9.846539 -2.715560 0.000000 0.000000 0.000000 5.359555 -1.829353 21.650323 -3.571859 1.672955 -2.439523 -5.992553 6.862908 -2.852941 9.938288 -3.811881 -16.940326 0.000000 0.000000 0.000000 -24.872824 -14.423190 3.342920 -43.817209 -3.054107 -2.712622 -9.887296 -20.339067 2.256264 0.000000 0.000000 0.000000 26.945728 5.262539 3.057131 47.882497 2.286133 -3.872133 9.475489 24.383842 2.884819 0.000000 0.000000 0.000000 
0.004716 0.934383 0.132278 -1.353190 -3.418368 -0.062815 2.764391 -1.003300 -15.628735 -1.788286 0.004886 26.574412 5.138303 12.660063 12.658230 0.000000 0.000000 0.000000 0.762942 2.130990 -19.140742 -0.291098 2.016901 33.986666 -3.178601 -8.559423 1.606674 0.000000 0.000000 0.000000 5.554801 -1.569317 18.023516 -3.440677 1.621104 -1.680813 -5.534179 6.389613 -2.347518 9.364028 -3.697728 -16.258582 0.000000 0.000000 0.000000 -24.790171 -13.280801 3.000828 -44.300401 -3.154692 -2.855166 -9.948258 -20.401026 2.295100 0.000000 0.000000 0.000000 26.720994 4.872283 2.504623 48.986643 1.996612 -4.000432 9.152133 24.296579 2.791629 0.000000 0.000000 0.000000 
0.005031 0.949726 0.130369 -1.185965 -3.749823 0.224011 2.831993 -0.780277 -12.033478 -1.967257 0.089632 19.965232 3.999884 11.016429 13.906623 0.000000 0.000000 0.000000 0.953886 1.668444 -15.072736 -1.358598 1.903185 26.701083 -2.101156 -7.191551 4.730134 0.000000 0.000000 0.000000 5.544846 -1.305215 14.803333 -2.990316 1.422829 -0.880069 -5.157121 6.120571 -2.442369 8.497986 -3.621744 -14.181623 0.000000 0.000000 0.000000 -25.296643 -12.276814 2.570499 -44.492361 -3.200294 -2.892016 -9.196675 -19.923546 2.127239 0.000000 0.000000 0.000000 27.339363 4.466094 2.029515 48.147912 1.709882 -3.988733 9.470825 23.697685 2.747983 0.000000 0.000000 0.000000 
0.005243 0.958058 0.129389 -1.123444 -4.107749 0.597193 2.170835 -0.668867 -9.339580 -0.739054 -0.202422 15.185006 3.147669 9.602472 13.707599 0.000000 0.000000 0.000000 0.993427 1.351997 -12.369469 -1.734070 1.646223 21.671557 -1.266548 -6.663205 8.111797 0.000000 0.000000 0.000000 5.802589 -1.079654 11.653973 -3.276556 1.580917 0.217493 -4.622765 5.526879 -3.231583 8.005983 -3.840574 -11.630400 0.000000 0.000000 0.000000 -26.453663 -11.454078 2.289745 -44.292911 -3.132489 -2.891191 -9.147702 -20.025077 2.148234 0.000000 0.000000 0.000000 27.480305 3.653472 1.126021 48.146561 0.706128 -4.189115 10.599758 23.708857 2.932437 0.000000 0.000000 0.000000 
0.005452 0.962208 0.128738 -1.036671 -4.087518 1.111001 2.012298 -0.580569 -7.830655 -0.150862 -0.286299 11.832495 2.033264 7.846971 13.734042 0.000000 0.000000 0.000000 0.732751 1.059011 -10.003488 -2.168178 1.399736 17.085623 -0.199381 -5.072140 9.615001 0.000000 0.000000 0.000000 5.975865 -0.841646 8.574170 -3.115177 1.521998 1.143540 -4.545779 5.133454 -3.753445 7.332188 -3.799933 -9.551572 0.000000 0.000000 0.000000 -27.261107 -10.157680 1.568380 -43.835469 -2.877506 -2.928140 -9.762985 -19.976140 2.257030 0.000000 0.000000 0.000000 27.873465 3.129277 0.594421 47.858151 -0.306596 -4.444682 10.954384 23.481297 2.944976 0.000000 0.000000 0.000000 
0.005469 0.963953 0.128226 -1.108372 -4.147567 1.059344 1.868833 -0.476781 -6.245259 0.383832 -0.339501 9.378172 1.660390 7.200352 13.528131 0.000000 0.000000 0.000000 0.830771 0.890639 -8.468616 -2.398677 1.244244 14.376071 0.328610 -4.653373 11.178460 0.000000 0.000000 0.000000 6.324337 -0.689915 6.615167 -3.579803 1.784547 2.250028 -4.180314 5.066949 -4.354778 6.922819 -3.754192 -8.294010 0.000000 0.000000 0.000000 -28.001755 -9.483221 1.123134 -43.293398 -2.197775 -3.072399 -10.375376 -21.107782 2.494953 0.000000 0.000000 0.000000 28.334953 2.173263 -0.140003 47.451465 -1.617339 -4.825043 12.007817 23.220014 3.096588 0.000000 0.000000 0.000000 
0.005519 0.965139 0.127613 -1.036781 -3.950213 0.876877 1.649771 -0.396755 -5.016664 1.027428 -0.413121 7.685413 0.826265 5.855391 13.371548 0.000000 0.000000 0.000000 0.662970 0.734533 -7.116643 -2.658782 1.142613 12.383560 1.040537 -3.586043 12.003846 0.000000 0.000000 0.000000 6.399717 -0.536538 4.960987 -3.620161 1.840404 3.462240 -4.242610 4.863015 -5.054298 6.898996 -3.928151 -7.178716 0.000000 0.000000 0.000000 -28.748712 -8.750664 0.583910 -42.117906 -1.544331 -3.126302 -11.089987 -20.889249 2.598804 0.000000 0.000000 0.000000 28.677623 1.617961 -0.572293 47.401736 -2.836114 -5.204634 12.315469 22.101300 2.972247 0.000000 0.000000 0.000000 
0.005681 0.966305 0.127175 -0.984388 -3.536553 0.844193 1.550344 -0.341832 -4.230252 1.335552 -0.424682 6.441468 0.197267 4.853930 13.204721 0.000000 0.000000 0.000000 0.800884 0.642830 -6.238476 -2.877920 1.063718 10.851400 0.808108 -4.145766 12.448404 0.000000 0.000000 0.000000 6.325460 -0.419897 3.759992 -3.742089 1.919160 4.170296 -3.784789 4.475324 -5.202608 6.913721 -3.946094 -7.161422 0.000000 0.000000 0.000000 -29.202978 -7.663143 -0.031812 -41.609377 -0.396657 -3.478147 -11.562957 -21.164602 2.730001 0.000000 0.000000 0.000000 28.101113 1.059585 -1.043491 47.683855 -4.116919 -5.641267 12.591885 20.825881 2.809780 0.000000 0.000000 0.000000 
0.005985 0.967337 0.127206 -0.904274 -3.184440 0.627113 1.293059 -0.269385 -3.215620 1.850210 -0.448386 4.968069 -0.395985 4.059902 13.600341 0.000000 0.000000 0.000000 0.757451 0.510239 -5.017942 -2.946909 0.941704 9.110041 0.729940 -4.405181 12.878555 0.000000 0.000000 0.000000 6.052363 -0.309894 2.729375 -3.344799 1.706859 4.338991 -3.844581 4.255505 -5.194342 6.825705 -3.846805 -7.386086 0.000000 0.000000 0.000000 -29.361082 -6.665126 -0.668782 -40.949833 1.155967 -3.923833 -11.515683 -20.714221 2.667179 0.000000 0.000000 0.000000 27.641540 0.283525 -1.537729 47.684744 -5.620290 -6.182487 12.772000 19.824696 2.682945 0.000000 0.000000 0.000000 
0.006355 0.967448 0.127533 -0.969047 -3.003948 0.472001 1.339322 -0.215634 -2.553861 2.059424 -0.454458 4.395985 -0.808649 3.243960 13.024675 0.000000 0.000000 0.000000 0.971591 0.457744 -4.502347 -3.251368 0.947477 8.470405 0.716270 -4.516801 13.184629 0.000000 0.000000 0.000000 5.895025 -0.264841 2.319662 -3.200233 1.633459 4.620267 -3.935724 4.096335 -5.309643 6.996832 -4.039896 -6.958943 0.000000 0.000000 0.000000 -29.007622 -5.678577 -1.255894 -40.427977 2.621530 -4.330226 -11.548402 -19.831276 2.557744 0.000000 0.000000 0.000000 26.906383 -0.600782 -2.071710 47.503251 -7.197782 -6.704389 13.207482 19.235517 2.658667 0.000000 0.000000 0.000000 
0.006682 0.967644 0.127909 -0.973277 -3.118614 0.049302 1.352649 -0.131250 -1.519577 2.152741 -0.440540 3.816638 -1.051283 2.632157 12.396014 0.000000 0.000000 0.000000 0.903505 0.381410 -3.801600 -3.284407 0.912074 7.919212 0.947023 -4.239300 13.540900 0.000000 0.000000 0.000000 5.547485 -0.235908 2.186196 -3.070760 1.571578 4.758630 -3.719915 4.019170 -5.217894 6.952012 -4.098253 -6.531674 0.000000 0.000000 0.000000 -28.559500 -4.782368 -1.693778 -40.145854 4.475516 -4.912765 -12.387728 -19.989634 2.727460 0.000000 0.000000 0.000000 26.333488 -1.304374 -2.536377 47.240522 -8.685705 -7.185280 13.754791 19.289206 2.747281 0.000000 0.000000 0.000000 
0.006879 0.967919 0.128214 -1.036321 -3.297300 -0.199105 1.461405 -0.042514 -0.433811 2.209198 -0.411733 3.067794 -1.269215 1.901253 11.363362 0.000000 0.000000 0.000000 1.059416 0.318701 -3.220741 -3.462834 0.887221 7.192768 1.028647 -4.291148 14.001670 0.000000 0.000000 0.000000 5.245089 -0.212419 2.050696 -2.996500 1.543272 5.053958 -3.562251 4.083855 -5.356851 7.085293 -4.248538 -6.209188 0.000000 0.000000 0.000000 -27.980425 -3.905729 -2.155237 -39.835703 6.298870 -5.438811 -13.728325 -20.210200 2.990965 0.000000 0.000000 0.000000 26.281834 -1.828824 -2.887541 46.577153 -9.835648 -7.464697 14.387730 19.448465 2.869819 0.000000 0.000000 0.000000 
0.006987 0.968206 0.128405 -0.944309 -3.880934 -0.657624 1.430252 0.034397 0.473079 2.096340 -0.382062 2.765470 -1.204017 1.834916 11.049141 0.000000 0.000000 0.000000 0.922331 0.253302 -2.621735 -3.407495 0.853793 6.859554 1.198123 -4.104970 14.070814 0.000000 0.000000 0.000000 4.795337 -0.201520 2.134560 -2.872431 1.490413 4.996830 -3.452238 4.358817 -5.091961 7.231421 -4.407384 -5.975420 0.000000 0.000000 0.000000 -26.989986 -3.112457 -2.477443 -39.633694 8.278943 -6.062917 -15.800096 -21.088741 3.504212 0.000000 0.000000 0.000000 25.883954 -2.298715 -3.147436 46.236924 -11.065783 -7.855439 15.024525 20.151204 3.095104 0.000000 0.000000 0.000000 
0.007024 0.968199 0.128462 -1.012233 -4.140005 -0.795879 1.600568 0.073687 0.956441 1.872298 -0.332063 2.361122 -1.083216 1.963064 10.905136 0.000000 0.000000 0.000000 1.042923 0.220878 -2.331520 -3.462835 0.842784 6.601171 1.229692 -4.063814 14.004167 0.000000 0.000000 0.000000 4.603161 -0.194419 2.125333 -2.975367 1.550010 4.904332 -3.212831 4.630425 -4.814824 7.404562 -4.548898 -5.907694 0.000000 0.000000 0.000000 -26.645472 -2.619836 -2.734040 -38.809090 10.129207 -6.491665 -18.838211 -22.042824 4.254447 0.000000 0.000000 0.000000 25.923810 -2.652971 -3.341425 45.615276 -12.076929 -8.115615 15.857103 20.795469 3.355317 0.000000 0.000000 0.000000 
0.007023 0.967966 0.128472 -1.104872 -4.559335 -0.771742 1.809764 0.100470 1.297775 1.753756 -0.309192 2.207881 -1.076624 1.687412 10.197491 0.000000 0.000000 0.000000 1.185869 0.240611 -2.533504 -3.508725 0.856179 6.671411 1.294317 -4.112284 14.252602 0.000000 0.000000 0.000000 4.580225 -0.176097 1.905349 -2.871800 1.501142 4.820008 -3.297799 5.050196 -4.632926 7.871211 -4.850119 -6.042366 0.000000 0.000000 0.000000 -25.827733 -1.610072 -3.281757 -37.766575 12.191786 -6.895479 -22.831746 -23.194364 5.290427 0.000000 0.000000 0.000000 25.304049 -3.584456 -3.769457 44.671087 -13.584801 -8.452298 18.158183 21.917847 3.998588 0.000000 0.000000 0.000000 
0.006948 0.967645 0.128355 -1.285317 -4.707027 -0.824015 2.108738 0.119741 1.579913 1.594033 -0.286187 2.177366 -1.028335 1.525628 9.512037 0.000000 0.000000 0.000000 1.253695 0.217889 -2.332672 -3.377941 0.797484 6.190440 1.498306 -3.935381 14.684481 0.000000 0.000000 0.000000 4.711685 -0.171133 1.826584 -2.857189 1.498338 4.856382 -3.506814 5.307830 -4.564007 8.195886 -5.125560 -5.786163 0.000000 0.000000 0.000000 -25.411218 -1.073621 -3.610675 -35.586496 14.247968 -6.976480 -28.033084 -25.189494 6.937252 0.000000 0.000000 0.000000 24.869235 -4.676930 -4.308040 42.592050 -15.329280 -8.569134 22.960455 23.296067 5.263090 0.000000 0.000000 0.000000 
0.006877 0.967378 0.128202 -1.482580 -4.917102 -0.757169 2.194656 0.138595 1.829957 1.547419 -0.278753 2.150269 -0.563875 1.995840 8.516259 0.000000 0.000000 0.000000 1.290943 0.207477 -2.248110 -3.161793 0.745391 5.950765 1.717278 -3.521011 14.554666 0.000000 0.000000 0.000000 4.821814 -0.174824 1.837942 -2.972823 1.553337 4.462589 -3.507726 5.611361 -4.121198 8.552653 -5.489619 -5.321796 0.000000 0.000000 0.000000 -24.883500 -0.680766 -3.791254 -32.691679 16.153870 -6.799948 -35.402218 -26.253157 9.039956 0.000000 0.000000 0.000000 24.462050 -5.665358 -4.790136 40.225363 -17.410763 -8.672537 28.815064 25.106365 7.058482 0.000000 0.000000 0.000000 
